<svg width="200" height="200" viewBox="0 0 200 200" fill="none" xmlns="http://www.w3.org/2000/svg">
<mask id="mask0_155_717" style="mask-type:alpha" maskUnits="userSpaceOnUse" x="0" y="0" width="200" height="200">
<circle cx="100" cy="100" r="100" transform="matrix(1 8.74228e-08 8.74228e-08 -1 0 200)" fill="black"/>
</mask>
<g mask="url(#mask0_155_717)">
<rect width="200" height="200" transform="matrix(1 8.74228e-08 8.74228e-08 -1 0 200)" fill="#070001"/>
<rect width="118" height="200" transform="matrix(1 8.74228e-08 8.74228e-08 -1 82 200)" fill="#FFE71E"/>
<g filter="url(#filter0_f_155_717)">
<ellipse cx="50.5" cy="100" rx="50.5" ry="100" transform="matrix(1 8.74228e-08 8.74228e-08 -1 36 199.5)" fill="#FFE71E"/>
</g>
<g filter="url(#filter1_f_155_717)">
<ellipse cx="48" cy="112" rx="48" ry="112" transform="matrix(1 8.74228e-08 8.74228e-08 -1 47 211)" fill="#FFE71E"/>
</g>
</g>
<defs>
<filter id="filter0_f_155_717" x="28" y="-8.5" width="117" height="216" filterUnits="userSpaceOnUse" color-interpolation-filters="sRGB">
<feFlood flood-opacity="0" result="BackgroundImageFix"/>
<feBlend mode="normal" in="SourceGraphic" in2="BackgroundImageFix" result="shape"/>
<feGaussianBlur stdDeviation="4" result="effect1_foregroundBlur_155_717"/>
</filter>
<filter id="filter1_f_155_717" x="38.5248" y="-21.4752" width="112.95" height="240.95" filterUnits="userSpaceOnUse" color-interpolation-filters="sRGB">
<feFlood flood-opacity="0" result="BackgroundImageFix"/>
<feBlend mode="normal" in="SourceGraphic" in2="BackgroundImageFix" result="shape"/>
<feGaussianBlur stdDeviation="4.23762" result="effect1_foregroundBlur_155_717"/>
</filter>
</defs>
</svg>
