<svg width="200" height="200" viewBox="0 0 200 200" fill="none" xmlns="http://www.w3.org/2000/svg">
<mask id="mask0_155_723" style="mask-type:alpha" maskUnits="userSpaceOnUse" x="0" y="0" width="200" height="200">
<circle cx="100" cy="100" r="100" transform="matrix(1 8.74228e-08 8.74228e-08 -1 0 200)" fill="black"/>
</mask>
<g mask="url(#mask0_155_723)">
<rect width="200" height="200" transform="matrix(1 8.74228e-08 8.74228e-08 -1 0 200)" fill="#070001"/>
<rect width="118" height="200" transform="matrix(1 8.74228e-08 8.74228e-08 -1 82 200)" fill="#FFE71E"/>
<g filter="url(#filter0_f_155_723)">
<ellipse cx="63" cy="100" rx="63" ry="100" transform="matrix(1 8.74228e-08 8.74228e-08 -1 25 199.5)" fill="#FFE71E"/>
</g>
<g filter="url(#filter1_f_155_723)">
<ellipse cx="56.5" cy="108" rx="56.5" ry="108" transform="matrix(1 8.74228e-08 8.74228e-08 -1 39 208)" fill="#FFE71E"/>
</g>
</g>
<defs>
<filter id="filter0_f_155_723" x="17" y="-8.5" width="142" height="216" filterUnits="userSpaceOnUse" color-interpolation-filters="sRGB">
<feFlood flood-opacity="0" result="BackgroundImageFix"/>
<feBlend mode="normal" in="SourceGraphic" in2="BackgroundImageFix" result="shape"/>
<feGaussianBlur stdDeviation="4" result="effect1_foregroundBlur_155_723"/>
</filter>
<filter id="filter1_f_155_723" x="31" y="-16" width="129" height="232" filterUnits="userSpaceOnUse" color-interpolation-filters="sRGB">
<feFlood flood-opacity="0" result="BackgroundImageFix"/>
<feBlend mode="normal" in="SourceGraphic" in2="BackgroundImageFix" result="shape"/>
<feGaussianBlur stdDeviation="4" result="effect1_foregroundBlur_155_723"/>
</filter>
</defs>
</svg>
