<svg width="200" height="200" viewBox="0 0 200 200" fill="none" xmlns="http://www.w3.org/2000/svg">
<mask id="mask0_155_674" style="mask-type:alpha" maskUnits="userSpaceOnUse" x="0" y="0" width="200" height="200">
<circle cx="100" cy="100" r="100" transform="matrix(1 8.74228e-08 8.74228e-08 -1 0 200)" fill="#FFE71E"/>
</mask>
<g mask="url(#mask0_155_674)">
<rect width="200" height="200" transform="matrix(1 8.74228e-08 8.74228e-08 -1 0 200)" fill="#FFE71E"/>
<rect width="113" height="200" transform="matrix(1 8.74228e-08 8.74228e-08 -1 87 200)" fill="#070001"/>
<g filter="url(#filter0_f_155_674)">
<ellipse cx="92.5" cy="100" rx="92.5" ry="100" transform="matrix(1 8.74228e-08 8.74228e-08 -1 3 200)" fill="#070001"/>
</g>
<g filter="url(#filter1_f_155_674)">
<ellipse cx="92.5" cy="107.5" rx="92.5" ry="107.5" transform="matrix(1 8.74228e-08 8.74228e-08 -1 14 209)" fill="#070001"/>
</g>
</g>
<defs>
<filter id="filter0_f_155_674" x="-5" y="-8" width="201" height="216" filterUnits="userSpaceOnUse" color-interpolation-filters="sRGB">
<feFlood flood-opacity="0" result="BackgroundImageFix"/>
<feBlend mode="normal" in="SourceGraphic" in2="BackgroundImageFix" result="shape"/>
<feGaussianBlur stdDeviation="4" result="effect1_foregroundBlur_155_674"/>
</filter>
<filter id="filter1_f_155_674" x="6" y="-14" width="201" height="231" filterUnits="userSpaceOnUse" color-interpolation-filters="sRGB">
<feFlood flood-opacity="0" result="BackgroundImageFix"/>
<feBlend mode="normal" in="SourceGraphic" in2="BackgroundImageFix" result="shape"/>
<feGaussianBlur stdDeviation="4" result="effect1_foregroundBlur_155_674"/>
</filter>
</defs>
</svg>
