<svg width="200" height="200" viewBox="0 0 200 200" fill="none" xmlns="http://www.w3.org/2000/svg">
<mask id="mask0_155_705" style="mask-type:alpha" maskUnits="userSpaceOnUse" x="0" y="0" width="200" height="200">
<circle cx="100" cy="100" r="100" transform="matrix(1 8.74228e-08 8.74228e-08 -1 0 200)" fill="black"/>
</mask>
<g mask="url(#mask0_155_705)">
<path d="M93 199.5L203 199.5L203 -0.49999L93 -0.5L93 199.5Z" fill="#FFE71E"/>
<rect width="100" height="200" transform="matrix(1 8.74228e-08 8.74228e-08 -1 0 200)" fill="#070001"/>
<g filter="url(#filter0_f_155_705)">
<path d="M93 207L209 207L209 -7.00001L93 -7.00002L93 207Z" fill="#FFE71E"/>
</g>
<g filter="url(#filter1_f_155_705)">
<ellipse cx="21.5" cy="100.5" rx="21.5" ry="100.5" transform="matrix(1 8.74228e-08 8.74228e-08 -1 75 200)" fill="#FFE71E"/>
</g>
</g>
<defs>
<filter id="filter0_f_155_705" x="85" y="-15" width="132" height="230" filterUnits="userSpaceOnUse" color-interpolation-filters="sRGB">
<feFlood flood-opacity="0" result="BackgroundImageFix"/>
<feBlend mode="normal" in="SourceGraphic" in2="BackgroundImageFix" result="shape"/>
<feGaussianBlur stdDeviation="4" result="effect1_foregroundBlur_155_705"/>
</filter>
<filter id="filter1_f_155_705" x="67" y="-9" width="59" height="217" filterUnits="userSpaceOnUse" color-interpolation-filters="sRGB">
<feFlood flood-opacity="0" result="BackgroundImageFix"/>
<feBlend mode="normal" in="SourceGraphic" in2="BackgroundImageFix" result="shape"/>
<feGaussianBlur stdDeviation="4" result="effect1_foregroundBlur_155_705"/>
</filter>
</defs>
</svg>
