<svg width="200" height="200" viewBox="0 0 200 200" fill="none" xmlns="http://www.w3.org/2000/svg">
<mask id="mask0_155_751" style="mask-type:alpha" maskUnits="userSpaceOnUse" x="0" y="0" width="200" height="200">
<circle cx="100" cy="100" r="100" transform="matrix(-1 -1.74846e-07 -1.74846e-07 1 200 0)" fill="#FFE71E"/>
</mask>
<g mask="url(#mask0_155_751)">
<rect width="200" height="200" transform="matrix(-1 -1.74846e-07 -1.74846e-07 1 200 0)" fill="#FFE71E"/>
<rect width="113" height="200" transform="matrix(-1 -1.74846e-07 -1.74846e-07 1 113 0)" fill="#070001"/>
<g filter="url(#filter0_f_155_751)">
<ellipse cx="66" cy="100" rx="66" ry="100" transform="matrix(-1 -1.74846e-07 -1.74846e-07 1 177 -0.5)" fill="#070001"/>
</g>
<g filter="url(#filter1_f_155_751)">
<ellipse cx="66" cy="111" rx="66" ry="111" transform="matrix(-1 -1.74846e-07 -1.74846e-07 1 159 -8.5)" fill="#070001"/>
</g>
</g>
<defs>
<filter id="filter0_f_155_751" x="37" y="-8.5" width="148" height="216" filterUnits="userSpaceOnUse" color-interpolation-filters="sRGB">
<feFlood flood-opacity="0" result="BackgroundImageFix"/>
<feBlend mode="normal" in="SourceGraphic" in2="BackgroundImageFix" result="shape"/>
<feGaussianBlur stdDeviation="4" result="effect1_foregroundBlur_155_751"/>
</filter>
<filter id="filter1_f_155_751" x="19" y="-16.5" width="148" height="238" filterUnits="userSpaceOnUse" color-interpolation-filters="sRGB">
<feFlood flood-opacity="0" result="BackgroundImageFix"/>
<feBlend mode="normal" in="SourceGraphic" in2="BackgroundImageFix" result="shape"/>
<feGaussianBlur stdDeviation="4" result="effect1_foregroundBlur_155_751"/>
</filter>
</defs>
</svg>
