<svg width="200" height="200" viewBox="0 0 200 200" fill="none" xmlns="http://www.w3.org/2000/svg">
<mask id="mask0_155_656" style="mask-type:alpha" maskUnits="userSpaceOnUse" x="0" y="0" width="200" height="200">
<circle cx="100" cy="100" r="100" transform="matrix(1 8.74228e-08 8.74228e-08 -1 0 200)" fill="#FFE71E"/>
</mask>
<g mask="url(#mask0_155_656)">
<rect width="200" height="200" transform="matrix(1 8.74228e-08 8.74228e-08 -1 0 200)" fill="#FFE71E"/>
<rect width="115" height="200" transform="matrix(1 8.74228e-08 8.74228e-08 -1 85 200)" fill="#070001"/>
<g filter="url(#filter0_f_155_656)">
<ellipse cx="53.5" cy="100" rx="53.5" ry="100" transform="matrix(1 8.74228e-08 8.74228e-08 -1 35 200)" fill="#070001"/>
</g>
<g filter="url(#filter1_f_155_656)">
<ellipse cx="53.5" cy="112.5" rx="53.5" ry="112.5" transform="matrix(1 8.74228e-08 8.74228e-08 -1 49 216)" fill="#070001"/>
</g>
</g>
<defs>
<filter id="filter0_f_155_656" x="27" y="-8" width="123" height="216" filterUnits="userSpaceOnUse" color-interpolation-filters="sRGB">
<feFlood flood-opacity="0" result="BackgroundImageFix"/>
<feBlend mode="normal" in="SourceGraphic" in2="BackgroundImageFix" result="shape"/>
<feGaussianBlur stdDeviation="4" result="effect1_foregroundBlur_155_656"/>
</filter>
<filter id="filter1_f_155_656" x="41" y="-17" width="123" height="241" filterUnits="userSpaceOnUse" color-interpolation-filters="sRGB">
<feFlood flood-opacity="0" result="BackgroundImageFix"/>
<feBlend mode="normal" in="SourceGraphic" in2="BackgroundImageFix" result="shape"/>
<feGaussianBlur stdDeviation="4" result="effect1_foregroundBlur_155_656"/>
</filter>
</defs>
</svg>
