<svg width="200" height="200" viewBox="0 0 200 200" fill="none" xmlns="http://www.w3.org/2000/svg">
<mask id="mask0_155_668" style="mask-type:alpha" maskUnits="userSpaceOnUse" x="0" y="0" width="200" height="200">
<circle cx="100" cy="100" r="100" transform="matrix(1 8.74228e-08 8.74228e-08 -1 0 200)" fill="#FFE71E"/>
</mask>
<g mask="url(#mask0_155_668)">
<rect width="200" height="200" transform="matrix(1 8.74228e-08 8.74228e-08 -1 0 200)" fill="#FFE71E"/>
<rect width="113" height="200" transform="matrix(1 8.74228e-08 8.74228e-08 -1 87 200)" fill="#070001"/>
<g filter="url(#filter0_f_155_668)">
<ellipse cx="81" cy="100" rx="81" ry="100" transform="matrix(1 8.74228e-08 8.74228e-08 -1 9 200)" fill="#070001"/>
</g>
<g filter="url(#filter1_f_155_668)">
<ellipse cx="81" cy="105" rx="81" ry="105" transform="matrix(1 8.74228e-08 8.74228e-08 -1 21 205)" fill="#070001"/>
</g>
</g>
<defs>
<filter id="filter0_f_155_668" x="1" y="-8" width="178" height="216" filterUnits="userSpaceOnUse" color-interpolation-filters="sRGB">
<feFlood flood-opacity="0" result="BackgroundImageFix"/>
<feBlend mode="normal" in="SourceGraphic" in2="BackgroundImageFix" result="shape"/>
<feGaussianBlur stdDeviation="4" result="effect1_foregroundBlur_155_668"/>
</filter>
<filter id="filter1_f_155_668" x="13" y="-13" width="178" height="226" filterUnits="userSpaceOnUse" color-interpolation-filters="sRGB">
<feFlood flood-opacity="0" result="BackgroundImageFix"/>
<feBlend mode="normal" in="SourceGraphic" in2="BackgroundImageFix" result="shape"/>
<feGaussianBlur stdDeviation="4" result="effect1_foregroundBlur_155_668"/>
</filter>
</defs>
</svg>
