<svg width="200" height="200" viewBox="0 0 200 200" fill="none" xmlns="http://www.w3.org/2000/svg">
<mask id="mask0_155_650" style="mask-type:alpha" maskUnits="userSpaceOnUse" x="0" y="0" width="200" height="200">
<circle cx="100" cy="100" r="100" transform="matrix(1 8.74228e-08 8.74228e-08 -1 0 200)" fill="#FFE71E"/>
</mask>
<g mask="url(#mask0_155_650)">
<rect width="200" height="200" transform="matrix(1 8.74228e-08 8.74228e-08 -1 0 200)" fill="#FFE71E"/>
<rect width="113" height="200" transform="matrix(1 8.74228e-08 8.74228e-08 -1 87 200)" fill="#070001"/>
<g filter="url(#filter0_f_155_650)">
<ellipse cx="40" cy="100" rx="40" ry="100" transform="matrix(1 8.74228e-08 8.74228e-08 -1 50 200)" fill="#070001"/>
</g>
<g filter="url(#filter1_f_155_650)">
<ellipse cx="41" cy="114.5" rx="41" ry="114.5" transform="matrix(1 8.74228e-08 8.74228e-08 -1 62 214)" fill="#070001"/>
</g>
</g>
<defs>
<filter id="filter0_f_155_650" x="42" y="-8" width="96" height="216" filterUnits="userSpaceOnUse" color-interpolation-filters="sRGB">
<feFlood flood-opacity="0" result="BackgroundImageFix"/>
<feBlend mode="normal" in="SourceGraphic" in2="BackgroundImageFix" result="shape"/>
<feGaussianBlur stdDeviation="4" result="effect1_foregroundBlur_155_650"/>
</filter>
<filter id="filter1_f_155_650" x="54" y="-23" width="98" height="245" filterUnits="userSpaceOnUse" color-interpolation-filters="sRGB">
<feFlood flood-opacity="0" result="BackgroundImageFix"/>
<feBlend mode="normal" in="SourceGraphic" in2="BackgroundImageFix" result="shape"/>
<feGaussianBlur stdDeviation="4" result="effect1_foregroundBlur_155_650"/>
</filter>
</defs>
</svg>
