<svg width="1197" height="372" viewBox="0 0 1197 372" fill="none" xmlns="http://www.w3.org/2000/svg">
<path d="M270.333 166.345V291.31C270.333 312.828 275.621 317.793 332.463 317.793C356.919 317.793 391.95 316.552 423.676 314.897C491.755 311.586 496.382 309.103 518.854 255.31C534.717 265.655 559.173 273.103 581.646 277.655C546.615 342.207 542.649 344.69 424.337 349.241C391.95 350.483 357.58 351.31 331.802 351.31C217.456 351.31 210.186 346.759 210.186 292.138V175.448C130.209 187.034 60.1474 198.621 13.8802 207.31L0 168.828C52.8769 163.862 128.887 153.931 210.186 141.931V73.6552C210.186 38.4828 209.525 19.0345 207.542 3.72414C228.692 6.20692 265.706 7.86207 280.247 7.03449C288.179 6.6207 291.484 8.68967 282.891 16.1379C274.96 22.7586 270.333 36 270.333 52.1379V133.241L406.491 113.379C463.994 105.103 501.669 98.4828 571.07 84.4138L586.272 122.897C512.906 130.759 476.553 135.724 418.388 144.414L270.333 166.345Z" fill="#F2011F"/>
<path d="M908.16 73.2414H1120.99C1157.34 73.2414 1179.15 72 1197 70.3448C1180.48 147.31 1140.82 215.586 1080.67 259.862C1013.25 309.517 913.448 340.966 742.259 372C727.718 355.035 713.177 342.207 694.67 331.448C792.492 326.897 916.753 299.172 992.102 262.345C945.835 235.034 892.297 208.966 846.03 191.172L876.434 163.862C931.955 187.448 982.188 211.034 1033.74 237.103C1072.08 205.655 1105.13 154.345 1119.01 108.414H879.078C847.352 144.414 805.711 180.414 763.41 211.035C754.817 203.586 726.396 194.897 699.957 192C787.865 144 857.266 74.4828 885.026 0C904.855 4.55174 945.174 10.7586 960.376 11.1724C976.239 11.5862 977.561 14.4828 964.342 19.4483C955.749 22.7586 935.92 39.7241 908.16 73.2414Z" fill="#F2011F"/>
</svg>
