<svg width="1167" height="381" viewBox="0 0 1167 381" fill="none" xmlns="http://www.w3.org/2000/svg">
<path d="M269.64 240.773H170.853V301.12C170.853 319.72 172.507 352.787 174.987 375.52H130.76C132.827 355.68 134.893 319.72 134.893 301.12V240.773H39.0001V270.12H0.973389C2.62673 252.76 3.86672 225.893 3.86672 208.533V119.253C3.86672 104.787 2.62673 87.0134 0.973389 76.6801C21.2267 79.5734 65.8667 80.8134 134.893 81.2267V61.8C134.893 22.9467 133.653 9.30672 130.76 0.213379C146.053 1.86672 159.693 2.69337 174.573 2.69337C181.187 2.69337 182.427 4.34671 175.813 10.1334C172.507 13.0267 170.853 20.4667 170.853 32.8667V81.2267C243.187 80.8134 288.653 79.1601 308.907 76.6801C308.08 87.4267 306.84 113.053 306.84 127.52V206.88C306.84 223.413 308.08 248.627 308.907 265.987H269.64V240.773ZM170.853 209.773H269.64V112.227H170.853V209.773ZM39.0001 209.773H134.893V112.227H39.0001V209.773Z" fill="#FFE71E"/>
<path d="M487.88 127.52C508.96 127.107 528.8 125.867 539.547 124.213V158.52C529.213 157.28 510.2 156.04 487.88 155.627V306.08C487.88 333.36 488.707 353.613 491.187 378.827H453.573C455.64 353.613 456.88 332.947 456.88 306.08V202.333C442 247.8 429.187 272.187 403.147 313.107C396.947 299.467 389.507 287.893 380.827 277.973C410.173 245.733 436.213 204.4 449.853 155.213C421.333 155.213 402.32 156.453 389.093 158.52V124.213C403.973 126.28 422.16 127.52 456.88 127.52V64.6934C438.693 68.0001 417.613 71.7201 408.52 72.9601C405.627 61.8 402.32 53.1201 396.533 43.6134C419.267 41.5467 442.827 38.2401 462.667 34.1067C487.053 29.1467 515.16 20.4667 529.213 10.9601C536.24 23.7734 544.507 34.9334 551.533 40.72C558.56 46.5067 557.32 48.9867 550.707 47.7467C543.267 46.0934 531.693 47.3334 487.88 57.6667V127.52ZM546.16 235.4L519.293 255.653C510.2 237.467 500.693 221.347 489.12 203.987L509.373 189.52C523.427 205.227 535 218.867 546.16 235.4ZM637.92 227.96C620.56 299.467 584.6 340.387 532.52 375.52C525.08 366.427 513.92 356.92 502.347 348.24C572.613 307.32 601.133 275.907 616.427 182.08C621.8 149.427 621.8 56.0134 615.6 1.86672C631.72 4.34671 645.773 4.76004 661.067 2.69337C668.507 1.86672 669.747 5.17339 663.133 10.9601C659 15.0934 654.04 37.4134 653.627 61.8C653.213 89.0801 651.973 122.56 648.667 158.52C664.787 265.987 690.827 292.44 758.2 320.133C746.627 336.253 740.013 347.827 734.64 363.12C682.56 332.533 651.973 295.747 637.92 227.96ZM577.16 194.067L545.333 191.587C552.36 156.867 556.907 120.907 559.387 86.1867L589.56 89.9067C586.667 125.04 582.12 163.067 577.16 194.067ZM741.253 87.8401C735.053 94.0401 727.613 110.987 702.4 181.667C692.893 177.533 682.973 175.467 669.747 175.053C683.8 149.427 696.613 113.88 703.64 73.3734C713.973 77.0934 725.96 79.5734 739.187 80.4001C745.8 80.8134 746.213 82.88 741.253 87.8401Z" fill="#FFE71E"/>
<path d="M960.733 184.973V309.387C960.733 329.64 962.387 355.68 964.867 380.48H921.88C924.36 355.68 926.013 329.64 926.013 309.387V184.973C895.84 184.973 845.413 186.213 827.227 188.693V152.32C842.933 154.8 916.093 156.04 966.933 156.04C1028.52 156.04 1091.35 154.387 1112.01 152.32L1107.88 268.053C1106.23 313.107 1104.16 315.587 1031.41 326.747C1029.35 311.453 1025.63 299.053 1017.36 285.413C1066.55 293.267 1073.99 283.76 1074.4 256.893L1076.05 184.973H960.733ZM942.133 53.1201H1019.01C1019.01 27.08 1018.6 16.3334 1016.53 4.34671C1027.69 6.00005 1045.05 6.82673 1055.39 6.82673C1060.35 6.82673 1061.17 10.1334 1057.04 12.6134C1053.32 14.6801 1052.49 16.3334 1052.49 21.2934V53.1201C1098.79 53.1201 1138.88 52.2934 1166.16 49.8134V86.1867C1138.88 83.7067 1098.79 82.4667 1052.49 82.4667V130.827H1019.01V82.4667H942.133V130.413H908.654V82.4667C863.6 82.4667 823.507 83.7067 796.227 86.1867V49.8134C823.92 52.7067 863.187 53.1201 908.654 53.1201C908.24 31.2134 907.413 13.8534 906.173 3.93338C917.333 5.58672 934.693 6.41337 945.027 6.41337C949.987 6.41337 950.814 9.72005 946.68 12.2C942.96 14.2667 942.133 15.92 942.133 20.8801V53.1201Z" fill="#FFE71E"/>
</svg>
