<svg width="1189" height="385" viewBox="0 0 1189 385" fill="none" xmlns="http://www.w3.org/2000/svg">
<path d="M146.56 165.827C148.627 284.867 115.147 326.613 33.3067 379.52C25.4533 365.88 13.88 353.48 0.65332 345.627C85.3867 311.32 111.013 270.4 108.947 165.827C70.0933 165.827 31.24 166.24 10.9867 168.72V131.107C34.96 132.76 79.6 134 173.84 134C268.493 134 313.96 132.76 337.107 131.107V168.72C316.027 167.067 273.04 165.827 232.947 165.827V305.947C232.947 323.72 237.08 324.96 274.693 324.96C312.307 324.96 318.507 316.28 328.84 267.093C340.413 281.147 351.16 287.76 365.213 290.24C347.44 352.653 336.28 359.68 272.213 359.68C206.08 359.68 196.16 350.587 196.16 317.52V165.827H146.56ZM299.907 67.0398C272.627 64.9732 225.507 63.7332 174.253 63.7332C123 63.7332 76.2933 64.9732 48.1867 67.0398V27.7732C76.7067 30.2532 121.76 31.4932 173.013 31.4932C224.267 31.4932 271.8 30.6665 299.907 27.7732V67.0398Z" fill="#FFE71E"/>
<path d="M706.213 118.293C711.173 121.6 710.76 124.907 704.973 125.32C695.467 126.147 685.96 130.693 647.52 160.453C642.973 153.427 636.773 146.4 627.68 139.787C651.24 127.387 664.88 114.573 677.693 95.5598C688.853 106.307 696.293 112.093 706.213 118.293ZM550.387 133.587L527.653 159.627C511.533 143.92 494.587 130.693 475.573 120.36L497.48 97.6265C514.84 108.373 532.2 119.533 550.387 133.587ZM576.427 45.1332C574.773 31.9065 571.467 19.0932 567.747 7.51984L605.36 0.493164C608.667 13.3065 611.56 28.5998 614.04 45.1332C702.493 45.1332 733.493 43.8932 761.6 40.9998V122.427H728.947V71.1732H450.36V128.627H417.707V40.9998C445.4 43.8932 479.293 45.1332 576.427 45.1332ZM494.173 227.827H681V191.867H494.173V227.827ZM681 253.04H494.173V285.693H681V253.04ZM573.12 165.827V127.8C573.12 115.813 572.293 100.107 570.227 88.1198C583.867 90.1865 596.68 91.0132 609.907 90.5998C615.693 90.5998 617.347 93.0799 612.387 97.6265C608.253 101.76 605.36 107.96 605.36 116.64V165.827C645.04 165.413 690.093 163.76 717.787 162.107C716.133 172.027 714.893 195.173 714.893 209.64V342.32C714.893 368.773 712 371.253 650 381.173C647.52 369.187 643.387 356.787 635.947 342.733C677.28 342.32 681 339.013 681 325.373V310.907H494.173V376.213H457.8C459.867 355.96 460.693 339.427 460.693 317.107V209.64C460.693 195.173 459.04 172.853 457.387 162.107C483.84 163.76 532.613 165.413 573.12 165.827Z" fill="#FFE71E"/>
<path d="M982.733 188.973V313.387C982.733 333.64 984.387 359.68 986.867 384.48H943.88C946.36 359.68 948.013 333.64 948.013 313.387V188.973C917.84 188.973 867.413 190.213 849.227 192.693V156.32C864.933 158.8 938.093 160.04 988.933 160.04C1050.52 160.04 1113.35 158.387 1134.01 156.32L1129.88 272.053C1128.23 317.107 1126.16 319.587 1053.41 330.747C1051.35 315.453 1047.63 303.053 1039.36 289.413C1088.55 297.267 1095.99 287.76 1096.4 260.893L1098.05 188.973H982.733ZM964.133 57.1198H1041.01C1041.01 31.0798 1040.6 20.3332 1038.53 8.3465C1049.69 9.99983 1067.05 10.8265 1077.39 10.8265C1082.35 10.8265 1083.17 14.1332 1079.04 16.6132C1075.32 18.6798 1074.49 20.3332 1074.49 25.2932V57.1198C1120.79 57.1198 1160.88 56.2932 1188.16 53.8132V90.1865C1160.88 87.7065 1120.79 86.4665 1074.49 86.4665V134.827H1041.01V86.4665H964.133V134.413H930.653V86.4665C885.6 86.4665 845.507 87.7065 818.227 90.1865V53.8132C845.92 56.7065 885.187 57.1198 930.653 57.1198C930.24 35.2132 929.413 17.8532 928.173 7.93317C939.333 9.5865 956.693 10.4132 967.027 10.4132C971.987 10.4132 972.813 13.7198 968.68 16.1998C964.96 18.2665 964.133 19.9198 964.133 24.8798V57.1198Z" fill="#FFE71E"/>
</svg>
