<svg width="1197" height="381" viewBox="0 0 1197 381" fill="none" xmlns="http://www.w3.org/2000/svg">
<path d="M400.465 297.527H188.934V331.825H400.465V297.527ZM188.934 273.56H400.465V241.328H188.934V273.56ZM229.734 177.277C215.297 190.913 198.349 203.723 179.519 216.534C207.765 217.36 247.937 217.36 294.385 217.36C336.44 217.36 372.846 216.947 401.72 216.534C381.006 204.137 366.569 191.326 356.527 177.277H229.734ZM253.586 64.051C169.476 64.4642 106.079 65.7039 57.7472 68.1833V37.1909C107.335 39.6703 172.614 40.91 259.235 41.3232C262.373 22.3145 263.001 6.6117 260.49 0C278.693 4.13232 320.121 5.78525 332.047 4.95877C340.834 4.13232 343.973 7.85141 331.419 16.116C327.025 19.0087 319.493 29.3395 312.588 41.3232C404.231 41.3232 472.649 39.6703 524.747 37.1909V68.1833C471.393 65.2907 399.837 64.051 303.801 64.051C300.035 75.2082 295.641 85.9523 290.619 96.2831H336.441C399.209 96.2831 453.19 95.4566 500.267 92.1508V123.97C453.818 121.077 398.582 119.837 335.813 119.837H278.066C270.533 131.408 262.373 142.565 252.958 153.722H373.474C441.264 153.722 491.479 152.896 547.971 150.003V181.409C500.267 178.929 458.84 177.69 406.741 177.277C436.87 204.55 502.15 224.798 576.217 227.278C562.408 242.98 554.248 255.791 547.344 269.841C510.31 260.749 478.298 250.832 451.935 240.501V320.255C451.935 339.264 453.818 357.033 457.584 373.975H400.465V357.033H188.934V380.587H133.07C136.836 363.644 138.091 351.661 138.091 332.239V241.741C110.473 257.03 78.4609 271.907 42.6827 286.783C33.8951 276.039 16.3199 264.055 0 257.03C71.5564 234.716 130.559 208.682 173.242 177.277C120.516 177.69 77.8333 178.929 29.5013 181.409V150.003C87.2486 152.896 133.697 153.722 201.488 153.722C212.786 142.978 222.201 131.821 229.734 119.837C171.359 119.837 121.144 121.077 77.8333 123.97V92.1508C124.91 95.0434 178.263 96.6963 242.287 96.2831C246.681 86.3655 250.447 75.2082 253.586 64.051Z" fill="#FFE71E"/>
<path d="M885.039 185.541V309.924C885.039 330.172 887.55 356.206 891.316 381H826.037C829.803 356.206 832.314 330.172 832.314 309.924V185.541C786.492 185.541 709.915 186.781 682.296 189.26V152.896C706.148 155.375 817.249 156.615 894.455 156.615C987.98 156.615 1083.39 154.962 1114.77 152.896L1108.5 268.601C1105.99 313.643 1102.85 316.123 992.374 327.28C989.236 311.99 983.586 299.593 971.033 285.957C1045.73 293.808 1057.03 284.304 1057.65 257.444L1060.16 185.541H885.039ZM856.793 53.7202H973.543C973.543 27.6865 972.916 16.9425 969.777 4.95877C986.725 6.6117 1013.09 7.43818 1028.78 7.43818C1036.31 7.43818 1037.57 10.744 1031.29 13.2234C1025.64 15.2896 1024.39 16.9425 1024.39 21.9013V53.7202C1094.69 53.7202 1155.57 52.8937 1197 50.4143V86.7787C1155.57 84.2993 1094.69 83.0596 1024.39 83.0596V131.408H973.543V83.0596H856.793V130.995H805.951V83.0596C737.533 83.0596 676.647 84.2993 635.22 86.7787V50.4143C677.275 53.3069 736.905 53.7202 805.951 53.7202C805.323 31.8189 804.068 14.4631 802.185 4.54554C819.132 6.19848 845.495 7.02493 861.187 7.02493C868.719 7.02493 869.975 10.3308 863.698 12.8102C858.049 14.8763 856.793 16.5293 856.793 21.4881V53.7202Z" fill="#FFE71E"/>
</svg>
