<svg width="1240" height="405" viewBox="0 0 1240 405" fill="none" xmlns="http://www.w3.org/2000/svg">
<path d="M175.129 254.635H304.127V226.391H175.129V254.635ZM255.005 38.3939C294.73 37.9525 346.841 35.3047 364.781 33.0981V68.8441C346.841 66.6376 294.73 64.431 255.005 63.9897V96.2053C290.885 95.3227 333.173 93.5574 350.686 91.3509V125.332C333.173 123.125 290.885 120.919 255.005 120.477V150.928C297.72 150.486 357.947 148.28 376.741 145.632V180.937C353.676 177.847 282.77 176.523 240.055 176.523C197.341 176.523 125.58 177.847 102.942 180.937V145.632C120.455 147.838 178.973 150.045 222.115 150.928V120.477C188.798 120.919 150.355 123.125 134.55 125.332V91.3509C151.209 93.5574 189.652 95.764 222.115 96.2053V63.9897C184.526 64.8724 136.686 66.6376 120.882 68.8441V33.0981C137.113 35.3047 184.526 37.5112 222.115 38.3939C222.115 18.0937 221.688 7.50223 220.834 0C230.231 1.76524 244.327 2.64784 257.568 1.32391C262.694 0.882606 263.548 3.97178 258.849 8.38486C256.287 11.0327 255.005 18.9763 255.005 24.272V38.3939ZM89.7003 249.781C84.5746 261.255 79.0217 276.701 65.3531 318.625C57.2373 343.338 49.1216 369.375 41.8601 394.53C28.6187 382.615 14.9501 372.906 0 365.404C12.8143 346.869 20.9301 330.54 33.3173 298.325C41.8601 275.818 49.9759 248.898 55.5288 225.067C65.3531 236.541 77.3131 244.926 89.7003 249.781ZM304.127 330.981H175.129V395.413H138.822C140.53 371.141 141.385 349.075 141.385 331.423V237.424C141.385 222.42 140.958 205.65 140.103 198.589C155.908 199.913 191.361 200.795 239.628 200.795C285.76 200.795 323.348 199.913 337.871 198.589C337.444 205.65 337.017 222.42 337.017 237.424V352.164C337.017 387.469 334.881 393.647 275.081 402.473C273.372 389.676 269.955 379.084 261.412 361.873C301.137 364.08 304.127 361.873 304.127 344.221V330.981ZM175.129 305.827H304.127V279.348H175.129V305.827ZM85.856 162.402L65.3531 195.941C49.1216 180.937 19.6486 158.871 0.427144 149.604L20.0758 118.271C38.0158 131.951 65.7802 150.045 85.856 162.402ZM108.495 66.6376L83.7203 97.9705C64.9259 74.1398 43.1416 53.8396 22.2115 41.483L44.423 13.6805C64.9259 29.5677 90.5546 50.3092 108.495 66.6376Z" fill="#FFE71E"/>
<path d="M656.948 254.635C653.531 306.709 633.882 355.253 587.751 403.356C576.218 391.882 565.966 384.38 551.016 375.995C612.525 333.629 623.204 263.903 623.204 214.917V82.0834C623.204 55.1636 622.776 38.3939 621.068 26.4785C646.269 27.8024 668.908 28.2438 703.507 28.2438C738.96 28.2438 761.171 27.8024 786.8 26.4785C784.664 38.3939 784.237 55.1636 784.237 82.0834V361.432C784.237 382.173 777.83 392.323 711.195 399.826C710.341 385.704 704.788 368.493 692.401 355.253C742.804 360.108 748.357 351.282 748.357 334.953V254.635H656.948ZM748.357 126.214V60.9006H657.802V126.214H748.357ZM657.802 158.871V222.861H748.357V158.871H657.802ZM545.89 142.543V63.9897H489.935V142.543H545.89ZM545.89 258.166V173.876H489.935V258.166H545.89ZM489.935 289.94V349.516H453.2C454.054 330.099 454.482 310.681 454.482 289.498V73.2572C454.482 57.8114 454.482 39.7178 454.054 28.6851C464.306 31.3329 482.673 32.2155 517.699 32.2155C552.725 32.2155 570.665 31.3329 580.062 28.6851C579.208 39.7178 578.781 57.8114 578.781 73.2572V258.607C578.781 279.348 579.635 298.325 580.916 317.301H545.89V289.94H489.935Z" fill="#FFE71E"/>
<path d="M1027.71 195.941V328.775C1027.71 350.399 1029.42 378.201 1031.98 404.68H987.558C990.121 378.201 991.829 350.399 991.829 328.775V195.941C960.648 195.941 908.536 197.265 889.742 199.913V161.078C905.973 163.725 981.578 165.049 1034.12 165.049C1097.76 165.049 1162.69 163.284 1184.04 161.078L1179.77 284.644C1178.06 332.747 1175.93 335.395 1100.75 347.31C1098.62 330.981 1094.77 317.742 1086.23 303.179C1137.06 311.564 1144.75 301.414 1145.17 272.729L1146.88 195.941H1027.71ZM1008.49 55.1636H1087.94C1087.94 27.3611 1087.51 15.8871 1085.37 3.08915C1096.91 4.85438 1114.85 5.73702 1125.53 5.73702C1130.65 5.73702 1131.51 9.26747 1127.23 11.9153C1123.39 14.1219 1122.54 15.8871 1122.54 21.1828V55.1636C1170.38 55.1636 1211.81 54.2809 1240 51.6331V90.4683C1211.81 87.8204 1170.38 86.4965 1122.54 86.4965V138.13H1087.94V86.4965H1008.49V137.688H973.889V86.4965C927.33 86.4965 885.897 87.8204 857.706 90.4683V51.6331C886.324 54.7223 926.903 55.1636 973.889 55.1636C973.462 31.7742 972.608 13.2392 971.326 2.64784C982.859 4.41308 1000.8 5.29569 1011.48 5.29569C1016.6 5.29569 1017.46 8.82616 1013.19 11.474C1009.34 13.6805 1008.49 15.4458 1008.49 20.7415V55.1636Z" fill="#FFE71E"/>
</svg>
