<svg width="1194" height="382" viewBox="0 0 1194 382" fill="none" xmlns="http://www.w3.org/2000/svg">
<path d="M56.4931 255.827L24.6665 260.373C25.9065 236.4 19.7065 178.12 11.8531 162.826L41.6131 156.213C46.5731 184.32 53.5998 230.613 56.4931 255.827ZM129.653 119.426C113.946 117.36 95.3465 116.533 66.4131 116.533C37.8931 116.533 16.3998 117.36 0.279785 119.426V88.4265C16.3998 90.0798 38.3065 90.9065 67.2398 90.9065C95.7598 90.9065 114.773 90.0798 129.653 88.4265V119.426ZM92.0398 75.6131L54.0131 83.4665C53.1865 66.1065 46.5731 41.7198 38.7198 25.5998L76.7465 17.3331C78.3998 32.2131 85.8398 59.0798 92.0398 75.6131ZM230.92 93.3865V41.3065C230.92 24.7731 229.68 8.23981 228.44 0.799805C239.186 2.86647 252 3.69313 263.573 3.2798C269.36 2.86647 270.186 4.51981 265.64 9.47979C262.746 12.7865 261.093 21.8798 261.093 33.0398V93.3865H311.933V47.0931C311.933 35.1065 311.107 26.4265 309.867 20.6398C319.787 21.8798 333.84 22.7065 340.867 22.7065C345.827 22.7065 347.066 24.7731 342.52 30.9731C340.04 34.2798 340.04 47.0931 340.04 118.6C317.72 117.36 289.613 116.533 244.973 116.533C201.986 116.533 175.12 117.36 156.106 118.6C157.76 110.746 158.586 95.4532 158.586 83.8798V47.5065C158.586 36.3465 157.346 25.5998 156.106 21.8798C163.546 23.1198 180.906 23.5331 187.52 22.7065C193.72 21.8798 194.133 24.7731 189.586 29.7331C187.52 32.6265 185.866 47.0931 185.866 93.3865H230.92ZM62.6931 297.987C73.4398 256.24 85.8398 177.706 87.4931 145.88C99.8931 150.426 111.466 152.493 121.8 152.493C125.106 152.493 126.346 153.733 122.213 157.867C120.146 159.933 104.853 221.52 88.7331 291.786C103.2 287.653 117.253 282.693 130.893 276.907C127.173 289.307 126.346 302.12 127.586 312.04C91.2131 319.067 39.5465 336.427 8.95979 350.893C7.71979 339.32 4.41312 320.72 1.10645 307.907C23.0131 305.427 43.2665 302.12 62.6931 297.987ZM228.44 170.68C191.24 171.093 163.546 172.333 142.466 174.4V141.746C168.093 144.226 202.4 145.053 251.586 145.053C301.186 145.053 335.906 144.226 361.947 141.746V174.4C337.146 171.92 304.906 170.68 259.44 170.68C254.893 184.32 251.173 197.133 248.28 212.426C286.72 212.426 319.786 211.186 353.68 208.706C352.44 218.626 351.613 236.4 351.613 244.667V342.627C351.613 364.947 346.653 370.733 300.36 380.653C299.533 368.667 295.813 355.853 288.373 344.28C317.306 345.107 321.44 342.627 321.44 331.467V234.747H285.893V294.267C285.893 308.32 286.306 324.44 287.547 337.253H258.2C259.853 323.2 260.267 308.32 260.267 294.267V234.747H230.506V295.92C230.506 309.973 230.92 326.92 232.16 338.907H202.4C203.64 327.333 204.466 309.973 204.466 295.92V234.747H175.12V372.8H143.293C145.36 359.573 146.186 346.76 146.186 331.88V244.667C146.186 231.853 144.946 218.626 143.293 209.12C166.026 211.186 192.066 212.013 221 212.426C224.306 196.306 226.373 183.493 228.44 170.68Z" fill="#0076D0"/>
<path d="M586.387 101.653H515.706C496.693 138.026 485.947 154.56 465.693 179.773C459.493 170.266 445.026 163.24 428.906 161.173C450.813 142.986 471.893 110.333 488.013 74.3731C497.933 51.2265 505.786 27.2531 510.333 4.93313C523.973 10.7198 545.053 16.9198 558.693 19.3998C566.133 20.6398 566.547 22.2931 556.627 29.7331C554.147 31.7998 547.533 41.3065 533.48 67.7598H610.773C698.4 67.7598 722.373 67.3465 742.627 66.1065V103.306C721.96 102.066 700.467 101.653 622.76 101.653V206.227C686.827 205.813 733.533 204.16 771.147 202.093V244.667C733.533 242.6 686.827 241.36 622.76 240.947V314.107C622.76 332.707 624.413 357.507 626.893 380.24H582.667C584.733 360.4 586.387 332.707 586.387 314.107V240.947C512.813 240.947 461.147 242.186 420.227 244.667V202.093C461.56 204.573 512.813 206.227 586.387 206.227V101.653Z" fill="#0076D0"/>
<path d="M987.733 185.973V310.387C987.733 330.64 989.387 356.68 991.867 381.48H948.88C951.36 356.68 953.013 330.64 953.013 310.387V185.973C922.84 185.973 872.413 187.213 854.227 189.693V153.32C869.933 155.8 943.093 157.04 993.933 157.04C1055.52 157.04 1118.35 155.386 1139.01 153.32L1134.88 269.053C1133.23 314.107 1131.16 316.587 1058.41 327.747C1056.35 312.453 1052.63 300.053 1044.36 286.413C1093.55 294.267 1100.99 284.76 1101.4 257.893L1103.05 185.973H987.733ZM969.133 54.1198H1046.01C1046.01 28.0798 1045.6 17.3331 1043.53 5.34646C1054.69 6.9998 1072.05 7.82648 1082.39 7.82648C1087.35 7.82648 1088.17 11.1331 1084.04 13.6131C1080.32 15.6798 1079.49 17.3331 1079.49 22.2931V54.1198C1125.79 54.1198 1165.88 53.2931 1193.16 50.8131V87.1865C1165.88 84.7065 1125.79 83.4665 1079.49 83.4665V131.826H1046.01V83.4665H969.133V131.413H935.653V83.4665C890.6 83.4665 850.507 84.7065 823.227 87.1865V50.8131C850.92 53.7065 890.187 54.1198 935.653 54.1198C935.24 32.2131 934.413 14.8531 933.173 4.93313C944.333 6.58647 961.693 7.41313 972.027 7.41313C976.987 7.41313 977.813 10.7198 973.68 13.1998C969.96 15.2665 969.133 16.9198 969.133 21.8798V54.1198Z" fill="#0076D0"/>
</svg>
