<svg width="1198" height="379" viewBox="0 0 1198 379" fill="none" xmlns="http://www.w3.org/2000/svg">
<path d="M166.307 178.666V154.28H86.5332V178.666H166.307ZM197.307 154.28V178.666H280.387V154.28H197.307ZM166.307 229.506V200.573H86.5332V229.506H166.307ZM197.307 200.573V229.506H280.387V200.573H197.307ZM166.307 48.8798C113.813 53.0131 55.1198 54.6664 37.7598 52.5998C36.1065 44.3331 32.3865 32.7598 26.5998 22.8398C104.307 29.8664 239.467 19.9464 290.307 3.82645C295.267 14.9864 304.36 27.3864 313.867 36.8931C319.653 42.6798 318.827 45.1598 310.56 44.7464C281.627 42.6798 239.053 43.5064 197.307 46.3998V79.4664C272.947 79.4664 324.2 78.2265 366.36 75.3331V106.333C324.2 103.44 272.947 102.2 197.307 102.2V130.72C252.693 130.72 284.107 129.893 314.693 127.826C313.04 143.533 312.213 168.746 312.213 191.066C312.213 215.453 313.453 238.186 314.693 255.133C284.52 253.893 252.28 252.653 197.307 252.653V277.866C253.933 277.866 291.96 276.626 324.613 273.733V305.56C291.96 302.666 253.933 301.426 197.307 301.426V327.466C271.293 327.466 320.893 326.226 362.227 323.333V357.227C318.413 354.333 264.68 353.093 182.84 353.093C101 353.093 47.2665 354.333 3.45315 357.227V323.333C44.7865 326.226 93.5598 327.466 166.307 327.466V301.426C112.16 301.84 75.3732 303.08 43.5465 305.56V273.733C75.3732 276.213 112.16 277.453 166.307 277.866V252.653C115.467 252.653 82.8132 253.48 54.2932 254.72C55.5332 237.773 56.3598 215.04 56.3598 191.066C56.3598 168.746 55.5332 143.533 54.2932 127.826C83.2265 129.48 115.467 130.306 166.307 130.72V102.2C92.3198 102.2 41.8932 103.44 0.146484 106.333V75.3331C41.8932 78.2265 92.3198 79.4664 166.307 79.4664V48.8798Z" fill="#FFE71E"/>
<path d="M568.48 19.1198C556.493 65.4131 537.48 120.386 524.253 153.866C551.12 192.306 565.173 225.786 565.173 243.56C565.173 284.893 537.48 301.84 489.947 307.213C489.12 293.16 483.333 275.386 473.413 262.573C513.507 272.08 529.627 261.746 529.627 237.36C529.627 217.52 516.813 191.066 489.533 158.826C502.347 135.266 519.707 85.6665 525.907 53.4265H465.973V282.413C465.973 323.746 466.8 348.133 469.28 378.306H429.187C432.907 346.066 433.733 322.506 433.733 282.413V80.2931C433.733 61.2798 432.08 31.1064 430.427 19.5331C450.267 21.1865 475.893 21.5998 497.8 21.5998C523.84 21.5998 550.707 20.7731 568.48 19.1198ZM619.733 320.44V358.053H583.773C586.253 331.6 587.08 310.107 587.08 284.48V72.4398C587.08 52.1865 585.84 29.8664 584.6 19.1198C601.133 21.1865 618.08 22.0131 674.293 22.0131C730.507 22.0131 748.693 20.7731 764.813 19.1198C762.747 30.6931 761.507 47.2264 761.507 72.4398V292.746C761.507 315.066 762.333 333.666 764.813 356.4H727.613V320.44H619.733ZM727.613 152.213V53.8398H619.733V152.213H727.613ZM619.733 184.04V289.44H727.613V184.04H619.733Z" fill="#FFE71E"/>
<path d="M991.733 181.973V306.386C991.733 326.64 993.387 352.68 995.867 377.48H952.88C955.36 352.68 957.013 326.64 957.013 306.386V181.973C926.84 181.973 876.413 183.213 858.227 185.693V149.32C873.933 151.8 947.093 153.04 997.933 153.04C1059.52 153.04 1122.35 151.386 1143.01 149.32L1138.88 265.053C1137.23 310.106 1135.16 312.586 1062.41 323.746C1060.35 308.453 1056.63 296.053 1048.36 282.413C1097.55 290.266 1104.99 280.76 1105.4 253.893L1107.05 181.973H991.733ZM973.133 50.1198H1050.01C1050.01 24.0798 1049.6 13.3331 1047.53 1.34643C1058.69 2.99977 1076.05 3.82645 1086.39 3.82645C1091.35 3.82645 1092.17 7.1331 1088.04 9.61312C1084.32 11.6798 1083.49 13.3331 1083.49 18.2931V50.1198C1129.79 50.1198 1169.88 49.2931 1197.16 46.8131V83.1864C1169.88 80.7065 1129.79 79.4664 1083.49 79.4664V127.826H1050.01V79.4664H973.133V127.413H939.653V79.4664C894.6 79.4664 854.507 80.7065 827.227 83.1864V46.8131C854.92 49.7065 894.187 50.1198 939.653 50.1198C939.24 28.2131 938.413 10.8531 937.173 0.933105C948.333 2.58644 965.693 3.4131 976.027 3.4131C980.987 3.4131 981.813 6.71977 977.68 9.19977C973.96 11.2664 973.133 12.9198 973.133 17.8798V50.1198Z" fill="#FFE71E"/>
</svg>
